<?xml version="1.0" encoding="UTF-8" standalone="no"?>
<!-- Created with Inkscape (http://www.inkscape.org/) -->

<svg
   width="92.604172mm"
   height="24.245609mm"
   viewBox="0 0 92.604169 24.245609"
   version="1.1"
   id="svg2231"
   inkscape:version="1.1.2 (b8e25be833, 2022-02-05)"
   sodipodi:docname="buyukboru.svg"
   xmlns:inkscape="http://www.inkscape.org/namespaces/inkscape"
   xmlns:sodipodi="http://sodipodi.sourceforge.net/DTD/sodipodi-0.dtd"
   xmlns="http://www.w3.org/2000/svg"
   xmlns:svg="http://www.w3.org/2000/svg">
  <sodipodi:namedview
     id="namedview2233"
     pagecolor="#ffffff"
     bordercolor="#666666"
     borderopacity="1.0"
     inkscape:pageshadow="2"
     inkscape:pageopacity="0.0"
     inkscape:pagecheckerboard="0"
     inkscape:document-units="mm"
     showgrid="false"
     inkscape:zoom="0.7198092"
     inkscape:cx="120.86536"
     inkscape:cy="-13.197942"
     inkscape:window-width="1920"
     inkscape:window-height="1001"
     inkscape:window-x="-9"
     inkscape:window-y="-9"
     inkscape:window-maximized="1"
     inkscape:current-layer="layer1" />
  <defs
     id="defs2228">
    <clipPath
       clipPathUnits="userSpaceOnUse"
       id="clipPath1707">
      <rect
         style="opacity:0.3;fill:#666666"
         id="rect1709"
         width="68.53035"
         height="142.09265"
         x="507.96652"
         y="618.21088" />
    </clipPath>
    <clipPath
       clipPathUnits="userSpaceOnUse"
       id="clipPath1703">
      <rect
         style="opacity:0.3;fill:#666666"
         id="rect1705"
         width="68.53035"
         height="142.09265"
         x="507.96652"
         y="618.21088" />
    </clipPath>
    <clipPath
       clipPathUnits="userSpaceOnUse"
       id="clipPath1699">
      <rect
         style="opacity:0.3;fill:#666666"
         id="rect1701"
         width="68.53035"
         height="142.09265"
         x="507.96652"
         y="618.21088" />
    </clipPath>
    <clipPath
       clipPathUnits="userSpaceOnUse"
       id="clipPath1695">
      <rect
         style="opacity:0.3;fill:#666666"
         id="rect1697"
         width="68.53035"
         height="142.09265"
         x="507.96652"
         y="618.21088" />
    </clipPath>
    <clipPath
       clipPathUnits="userSpaceOnUse"
       id="clipPath2264">
      <rect
         style="opacity:0.3;fill:#666666"
         id="rect2262"
         width="68.53035"
         height="142.09265"
         x="507.96652"
         y="618.21088" />
    </clipPath>
    <clipPath
       clipPathUnits="userSpaceOnUse"
       id="clipPath2268">
      <rect
         style="opacity:0.3;fill:#666666"
         id="rect2266"
         width="68.53035"
         height="142.09265"
         x="507.96652"
         y="618.21088" />
    </clipPath>
    <clipPath
       clipPathUnits="userSpaceOnUse"
       id="clipPath2272">
      <rect
         style="opacity:0.3;fill:#666666"
         id="rect2270"
         width="68.53035"
         height="142.09265"
         x="507.96652"
         y="618.21088" />
    </clipPath>
    <clipPath
       clipPathUnits="userSpaceOnUse"
       id="clipPath2276">
      <rect
         style="opacity:0.3;fill:#666666"
         id="rect2274"
         width="68.53035"
         height="142.09265"
         x="507.96652"
         y="618.21088" />
    </clipPath>
  </defs>
  <g
     inkscape:label="Layer 1"
     inkscape:groupmode="layer"
     id="layer1"
     transform="translate(-73.15955,-71.316554)">
    <path
       stroke="none"
       fill="#e5e5e5"
       d="m 88.029084,87.827934 h -0.795107 q -2.509234,0.144565 -3.273362,2.12717 -0.371739,0.929346 -0.351087,2.271735 L 74.81172,92.216512 V 91.09097 Q 75.266066,80.083385 86.841587,79.835559 h 0.330433 0.857064 v 7.992375"
       id="path1432-1"
       style="stroke-width:0.206521" />
    <path
       stroke="none"
       fill="#f3f3f3"
       d="m 88.029084,79.009474 v 0.826085 H 87.17202 86.841587 Q 75.266066,80.083385 74.81172,91.090971 V 90.264886 Q 75.266066,79.2573 86.841587,79.009474 h 0.330433 0.857064"
       id="path1434-1"
       style="stroke-width:0.206521" />
    <path
       stroke="none"
       fill="#b6b6b6"
       d="m 88.029084,79.009474 v -0.805433 h 2.488582 v 0.826085 l -0.01033,7.971723 V 88.65402 H 88.02908 v -0.826086 -7.992375 -0.826085 m -4.419556,13.217365 h 0.826085 v 2.478256 H 73.985635 v -2.488582 h 0.826085 l 8.797808,0.01033"
       id="path1436-1"
       style="stroke-width:0.206521" />
    <path
       stroke="none"
       fill="#777777"
       d="m 91.343752,79.030126 -0.01033,7.971723 v 1.652171 q 0,0.34076 -0.2375,0.588586 -0.247825,0.237499 -0.588586,0.237499 H 88.02908 q -0.340759,0 -0.578259,-0.237499 -0.247826,-0.247826 -0.247826,-0.578261 -1.869018,0.134239 -2.46793,1.590215 v 0.01033 q -0.196195,0.495651 -0.268477,1.135867 0.320108,0.01033 0.557607,0.247825 0.2375,0.2375 0.2375,0.57826 v 2.478256 q 0,0.34076 -0.2375,0.588586 -0.247825,0.237499 -0.588586,0.237499 H 73.985635 q -0.340761,0 -0.57826,-0.237499 -0.247825,-0.247826 -0.247825,-0.588586 v -2.488582 q 0,-0.34076 0.247825,-0.57826 0.237499,-0.247825 0.57826,-0.247825 V 90.26489 90.23391 Q 74.450307,78.451867 86.831261,78.183388 h 0.01033 0.330434 0.03098 q 0.01033,-0.330433 0.247826,-0.557607 0.2375,-0.247826 0.578259,-0.247826 h 2.488582 q 0.340761,0 0.588586,0.247826 0.2375,0.2375 0.2375,0.57826 v 0.826085 m -3.314668,8.797808 v 0.826086 h 2.478256 v -1.652171 l 0.01033,-7.971723 v -0.826085 h -2.488582 v 0.805433 H 87.172024 86.84159 Q 75.266069,79.2573 74.811723,90.264886 v 0.826085 1.125542 h -0.826085 v 2.488582 h 10.449978 v -2.478256 h -0.826085 q -0.02065,-1.342389 0.351087,-2.271735 0.764128,-1.982605 3.273362,-2.12717 h 0.795107"
       id="path1438-5"
       style="stroke-width:0.206521" />
    <path
       stroke="none"
       fill="#e5e5e5"
       d="m 150.91483,87.827934 0.0103,-7.971723 h 1.95162 q 11.00759,0.454348 11.25541,12.029867 v 0.330435 0.03098 h -8.81844 v -0.795107 q -0.14456,-2.509234 -2.12717,-3.273363 -0.92934,-0.371739 -2.27173,-0.351086"
       id="path1440-2"
       style="stroke-width:0.206521" />
    <path
       stroke="none"
       fill="#f3f3f3"
       d="m 150.92516,79.856211 v -0.826085 h 1.95163 q 11.00758,0.454347 11.25541,12.029867 v 0.330434 0.495651 Q 163.88437,80.310559 152.87679,79.856211 h -1.95163"
       id="path1442-8"
       style="stroke-width:0.206521" />
    <path
       stroke="none"
       fill="#b6b6b6"
       d="m 150.92516,79.856211 -0.0103,7.971723 V 88.65402 H 148.4366 V 78.204041 h 2.48858 v 0.826085 0.826085 m 13.20704,12.39128 h 0.80544 v 2.488581 h -0.82609 l -7.97172,-0.01033 h -1.65217 V 92.24749 h 0.82608 8.81846"
       id="path1444-9"
       style="stroke-width:0.206521" />
    <path
       stroke="none"
       fill="#777777"
       d="m 152.91809,78.204041 q 11.77172,0.464673 12.04019,12.845626 v 0.01033 0.330434 0.03098 q 0.33044,0.01033 0.56794,0.247825 0.2375,0.2375 0.2375,0.57826 v 2.488582 q 0,0.34076 -0.2375,0.588586 -0.24783,0.237499 -0.58859,0.237499 h -0.82609 l -7.97171,-0.01033 h -1.65218 q -0.34076,0 -0.57825,-0.2375 -0.24783,-0.247825 -0.24783,-0.588585 v -2.478256 q 0,-0.34076 0.24783,-0.578259 0.23749,-0.247826 0.57825,-0.247826 -0.14456,-1.869018 -1.60054,-2.46793 -0.50598,-0.196195 -1.14619,-0.268477 -0.0103,0.320108 -0.2375,0.557607 -0.24783,0.237499 -0.58859,0.237499 h -2.47825 q -0.34077,0 -0.57827,-0.237499 -0.24782,-0.247825 -0.24782,-0.588586 v -10.44998 q 0,-0.34076 0.24782,-0.57826 0.2375,-0.247826 0.57827,-0.247826 h 2.48858 q 0.34076,0 0.58859,0.247826 0.23749,0.2375 0.23749,0.57826 h 1.12555 0.0413 m -1.99293,0.826085 v -0.826085 h -2.48859 V 88.65402 h 2.47826 v -0.826086 q 1.34239,-0.02065 2.27173,0.351086 1.9826,0.76413 2.12717,3.273363 v 0.795108 h -0.82608 v 2.478255 h 1.65217 l 7.97172,0.01033 h 0.82609 v -2.488582 h -0.80544 v -0.03098 -0.330434 -0.495652 -0.330434 q -0.24782,-11.57552 -11.25541,-12.029866 h -1.95162"
       id="path1446-8"
       style="stroke-width:0.206521" />
    <path
       stroke="none"
       fill="#e5e5e5"
       d="m 90.50734,87.827934 0.01033,-7.961397 h 17.64724 v 7.961397 H 90.50734"
       id="path1470-2"
       style="stroke-width:0.206521" />
    <path
       stroke="none"
       fill="#f3f3f3"
       d="m 90.517666,79.866537 v -0.826085 h 17.647244 v 0.826085 H 90.517666"
       id="path1472-4"
       style="stroke-width:0.206521" />
    <path
       stroke="none"
       fill="#b6b6b6"
       d="m 90.517666,79.866537 -0.01033,7.961397 V 88.65402 H 88.029083 V 78.204041 h 2.488582 v 0.836411 0.826085 m 17.647245,-0.826085 v -0.836411 h 2.48859 l -0.0103,10.449979 h -2.47825 v -0.826086 -7.961397 -0.826085"
       id="path1474-7"
       style="stroke-width:0.206521" />
    <path
       stroke="none"
       fill="#777777"
       d="M 108.16491,79.040452 H 90.517666 V 78.204041 H 88.029084 V 88.65402 h 2.478256 v -0.826086 h 17.65757 v 0.826086 h 2.47826 l 0.0103,-10.449979 h -2.48858 v 0.836411 M 90.517666,77.377955 q 0.34076,0 0.588586,0.247826 0.2375,0.2375 0.2375,0.57826 v 0.01033 h 15.995078 v -0.01033 q 0,-0.34076 0.24783,-0.57826 0.23749,-0.247826 0.57825,-0.247826 h 2.48859 q 0.34075,0 0.58858,0.247826 0.2375,0.2375 0.2375,0.57826 l -0.0103,10.449979 q 0,0.34076 -0.23749,0.588586 -0.24783,0.237499 -0.58859,0.237499 h -2.47825 q -0.34076,0 -0.57826,-0.237499 -0.24783,-0.247826 -0.24783,-0.588586 H 91.333426 q 0,0.34076 -0.2375,0.588586 -0.247825,0.237499 -0.588586,0.237499 h -2.478256 q -0.34076,0 -0.578259,-0.237499 Q 87.202999,88.99478 87.202999,88.65402 V 78.204041 q 0,-0.34076 0.247826,-0.57826 0.237499,-0.247826 0.578259,-0.247826 h 2.488582"
       id="path1476-8"
       style="stroke-width:0.206521" />
    <path
       stroke="none"
       fill="#e5e5e5"
       d="m 130.779,87.827934 0.0103,-7.961397 h 17.64725 v 7.961397 H 130.779"
       id="path1470-22"
       style="stroke-width:0.206521" />
    <path
       stroke="none"
       fill="#f3f3f3"
       d="m 130.78933,79.866537 v -0.826085 h 17.64725 v 0.826085 h -17.64725"
       id="path1472-45"
       style="stroke-width:0.206521" />
    <path
       stroke="none"
       fill="#b6b6b6"
       d="m 130.78933,79.866537 -0.0103,7.961397 v 0.826086 h -2.47826 V 78.204041 h 2.48858 v 0.836411 0.826085 m 17.64725,-0.826085 v -0.836411 h 2.48858 l -0.0103,10.449979 h -2.47825 v -0.826086 -7.961397 -0.826085"
       id="path1474-1"
       style="stroke-width:0.206521" />
    <path
       stroke="none"
       fill="#777777"
       d="m 148.43658,79.040452 h -17.64725 v -0.836411 h -2.48858 V 88.65402 h 2.47825 v -0.826086 h 17.65758 v 0.826086 h 2.47825 l 0.0103,-10.449979 h -2.48858 v 0.836411 M 130.7893,77.377955 q 0.34075,0 0.58858,0.247826 0.23751,0.2375 0.23751,0.57826 v 0.01033 h 15.99506 v -0.01033 q 0,-0.34076 0.24783,-0.57826 0.2375,-0.247826 0.57827,-0.247826 h 2.48858 q 0.34076,0 0.58858,0.247826 0.2375,0.2375 0.2375,0.57826 l -0.0103,10.449979 q 0,0.34076 -0.2375,0.588586 -0.24783,0.237499 -0.58859,0.237499 h -2.47825 q -0.34077,0 -0.57827,-0.237499 -0.24782,-0.247826 -0.24782,-0.588586 h -16.0054 q 0,0.34076 -0.2375,0.588586 -0.24782,0.237499 -0.58859,0.237499 h -2.47825 q -0.34076,0 -0.57826,-0.237499 -0.24783,-0.247826 -0.24783,-0.588586 V 78.204041 q 0,-0.34076 0.24783,-0.57826 0.2375,-0.247826 0.57826,-0.247826 h 2.48858"
       id="path1476-4"
       style="stroke-width:0.206521" />
    <path
       stroke="none"
       fill="#e5e5e5"
       d="m 529.7914,660.18667 v 1.35 0.35 2.3 q -0.1,6.5 1.7,11 1.5,3.9 4.45,6.35 4.2,3.55 11.4,3.95 h 3.85 v 38.7 h -4.15 -1.6 l -2.9,-0.1 h -76.8 l 0.05,-38.55 h 23.55 l -0.85,-4 q -1.05,-5.55 -1.3,-11.85 v -9.45 l 42.6,-0.05"
       id="path341"
       clip-path="url(#clipPath1707)"
       transform="matrix(0.20652132,0,0,0.20652132,14.457646,-61.721727)" />
    <path
       stroke="none"
       fill="#f3f3f3"
       d="m 529.7664,661.88667 q 0.15,5.4 1.7,9.3 3.7,9.6 15.85,10.3 h 3.85 v 4 h -3.85 q -7.2,-0.4 -11.4,-3.95 -2.95,-2.45 -4.45,-6.35 -1.8,-4.5 -1.7,-11 v -2.3 m -64,19.65 h 22.7 l 0.85,4 h -23.55 v -4"
       id="path343"
       clip-path="url(#clipPath1703)"
       transform="matrix(0.20652132,0,0,0.20652132,14.457646,-61.721727)" />
    <path
       stroke="none"
       fill="#b6b6b6"
       d="m 465.7414,681.53667 v 4 l -0.05,38.55 v 4 h -12 v -50.6 h 12.05 v 4.05 m 21.4,-21.3 h -4 v -12.05 h 50.6 v 12 h -4 l -42.6,0.05 m 64,21.25 v -4 h 12.1 l -0.05,50.6 h -12.05 v -3.9 -38.7 -4"
       id="path345"
       clip-path="url(#clipPath1699)"
       transform="matrix(0.20652132,0,0,0.20652132,14.457646,-61.721727)" />
    <path
       stroke="none"
       fill="#777777"
       d="m 551.1414,681.48667 h -3.85 q -12.15,-0.7 -15.85,-10.3 -1.55,-3.9 -1.7,-9.3 v -0.35 -1.35 h 4 v -12 h -50.6 v 12.05 h 4 v 9.45 q 0.25,6.3 1.3,11.85 h -22.7 v -4.05 h -12.05 v 50.6 h 12 v -4 h 76.8 l 2.9,0.1 h 1.6 4.15 v 3.9 h 12.05 l 0.05,-50.6 h -12.1 v 4 m -70.8,-36.1 q 1.15,-1.2 2.8,-1.2 h 50.6 q 1.65,0 2.85,1.2 1.15,1.15 1.15,2.8 v 12 q 0,1.65 -1.15,2.85 -1.15,1.1 -2.7,1.15 0.35,3.1 1.3,5.55 2.9,7.05 11.95,7.75 0,-1.65 1.2,-2.8 1.15,-1.2 2.8,-1.2 h 12.1 q 1.65,0 2.85,1.2 1.15,1.15 1.15,2.8 l -0.05,50.6 q 0,1.65 -1.15,2.85 -1.2,1.15 -2.85,1.15 h -12.05 q -1.65,0 -2.8,-1.15 -1.15,-1.15 -1.2,-2.75 h -0.15 -1.6 -0.1 l -2.8,-0.1 h -72.8 q 0,1.65 -1.15,2.85 -1.2,1.15 -2.85,1.15 h -12 q -1.65,0 -2.8,-1.15 -1.2,-1.2 -1.2,-2.85 v -50.6 q 0,-1.65 1.2,-2.8 1.15,-1.2 2.8,-1.2 h 12.05 q 1.65,0 2.85,1.2 1.15,1.15 1.15,2.8 v 0.05 h 14.05 q -0.5,-3.7 -0.65,-7.7 v -0.15 -5.45 q -1.65,0 -2.8,-1.15 -1.2,-1.2 -1.2,-2.85 v -12.05 q 0,-1.65 1.2,-2.8"
       id="path347"
       clip-path="url(#clipPath1695)"
       transform="matrix(0.20652132,0,0,0.20652132,14.457646,-61.721727)" />
    <path
       stroke="none"
       fill="#e5e5e5"
       d="m 529.7914,660.18667 v 1.35 0.35 2.3 q -0.1,6.5 1.7,11 1.5,3.9 4.45,6.35 4.2,3.55 11.4,3.95 h 3.85 v 38.7 h -4.15 -1.6 l -2.9,-0.1 h -76.8 l 0.05,-38.55 h 23.55 l -0.85,-4 q -1.05,-5.55 -1.3,-11.85 v -9.45 l 42.6,-0.05"
       id="path1791"
       clip-path="url(#clipPath1707)"
       transform="matrix(-0.20652132,0,0,0.20652132,224.47595,-61.7114)" />
    <path
       stroke="none"
       fill="#f3f3f3"
       d="m 529.7664,661.88667 q 0.15,5.4 1.7,9.3 3.7,9.6 15.85,10.3 h 3.85 v 4 h -3.85 q -7.2,-0.4 -11.4,-3.95 -2.95,-2.45 -4.45,-6.35 -1.8,-4.5 -1.7,-11 v -2.3 m -64,19.65 h 22.7 l 0.85,4 h -23.55 v -4"
       id="path1793"
       clip-path="url(#clipPath1703)"
       transform="matrix(-0.20652132,0,0,0.20652132,224.47595,-61.7114)" />
    <path
       stroke="none"
       fill="#b6b6b6"
       d="m 465.7414,681.53667 v 4 l -0.05,38.55 v 4 h -12 v -50.6 h 12.05 v 4.05 m 21.4,-21.3 h -4 v -12.05 h 50.6 v 12 h -4 l -42.6,0.05 m 64,21.25 v -4 h 12.1 l -0.05,50.6 h -12.05 v -3.9 -38.7 -4"
       id="path1795"
       clip-path="url(#clipPath1699)"
       transform="matrix(-0.20652132,0,0,0.20652132,224.47595,-61.7114)" />
    <path
       stroke="none"
       fill="#777777"
       d="m 551.1414,681.48667 h -3.85 q -12.15,-0.7 -15.85,-10.3 -1.55,-3.9 -1.7,-9.3 v -0.35 -1.35 h 4 v -12 h -50.6 v 12.05 h 4 v 9.45 q 0.25,6.3 1.3,11.85 h -22.7 v -4.05 h -12.05 v 50.6 h 12 v -4 h 76.8 l 2.9,0.1 h 1.6 4.15 v 3.9 h 12.05 l 0.05,-50.6 h -12.1 v 4 m -70.8,-36.1 q 1.15,-1.2 2.8,-1.2 h 50.6 q 1.65,0 2.85,1.2 1.15,1.15 1.15,2.8 v 12 q 0,1.65 -1.15,2.85 -1.15,1.1 -2.7,1.15 0.35,3.1 1.3,5.55 2.9,7.05 11.95,7.75 0,-1.65 1.2,-2.8 1.15,-1.2 2.8,-1.2 h 12.1 q 1.65,0 2.85,1.2 1.15,1.15 1.15,2.8 l -0.05,50.6 q 0,1.65 -1.15,2.85 -1.2,1.15 -2.85,1.15 h -12.05 q -1.65,0 -2.8,-1.15 -1.15,-1.15 -1.2,-2.75 h -0.15 -1.6 -0.1 l -2.8,-0.1 h -72.8 q 0,1.65 -1.15,2.85 -1.2,1.15 -2.85,1.15 h -12 q -1.65,0 -2.8,-1.15 -1.2,-1.2 -1.2,-2.85 v -50.6 q 0,-1.65 1.2,-2.8 1.15,-1.2 2.8,-1.2 h 12.05 q 1.65,0 2.85,1.2 1.15,1.15 1.15,2.8 v 0.05 h 14.05 q -0.5,-3.7 -0.65,-7.7 v -0.15 -5.45 q -1.65,0 -2.8,-1.15 -1.2,-1.2 -1.2,-2.85 v -12.05 q 0,-1.65 1.2,-2.8"
       id="path1797"
       clip-path="url(#clipPath1695)"
       transform="matrix(-0.20652132,0,0,0.20652132,224.47595,-61.7114)" />
  </g>
</svg>
