<?xml version="1.0" encoding="UTF-8" standalone="no"?>
<svg
   width="33.043224"
   height="32.839466"
   viewBox="0 0 33.043224 32.839466"
   version="1.1"
   id="svg165"
   sodipodi:docname="noun-ball-1691965 (1).svg"
   inkscape:version="1.1.2 (b8e25be833, 2022-02-05)"
   xmlns:inkscape="http://www.inkscape.org/namespaces/inkscape"
   xmlns:sodipodi="http://sodipodi.sourceforge.net/DTD/sodipodi-0.dtd"
   xmlns="http://www.w3.org/2000/svg"
   xmlns:svg="http://www.w3.org/2000/svg">
  <defs
     id="defs169">
    <clipPath
       clipPathUnits="userSpaceOnUse"
       id="clipPath1079">
      <rect
         style="opacity:0.3;fill:#000000;stroke-width:0.918771"
         id="rect1081"
         width="34.029499"
         height="33.258179"
         x="5.6559958"
         y="1.3820684" />
    </clipPath>
  </defs>
  <sodipodi:namedview
     id="namedview167"
     pagecolor="#ffffff"
     bordercolor="#666666"
     borderopacity="1.0"
     inkscape:pageshadow="2"
     inkscape:pageopacity="0.0"
     inkscape:pagecheckerboard="0"
     showgrid="false"
     fit-margin-top="0"
     fit-margin-left="0"
     fit-margin-right="0"
     fit-margin-bottom="0"
     objecttolerance="10000"
     inkscape:zoom="17.311111"
     inkscape:cx="13.603979"
     inkscape:cy="11.986521"
     inkscape:window-width="1920"
     inkscape:window-height="1001"
     inkscape:window-x="-9"
     inkscape:window-y="-9"
     inkscape:window-maximized="1"
     inkscape:current-layer="svg165" />
  <g
     id="surface1"
     clip-path="url(#clipPath1079)"
     transform="translate(-5.6559959,-1.800781)">
    <path
       style="fill:#000000;fill-opacity:1;fill-rule:nonzero;stroke:none"
       d="M 33.953125,6.546875 C 30.894531,3.484375 26.828125,1.800781 22.5,1.800781 13.566406,1.800781 6.300781,9.066406 6.300781,18 c 0,8.933594 7.265625,16.199219 16.199219,16.199219 8.933594,0 16.199219,-7.265625 16.199219,-16.199219 0,-4.328125 -1.683594,-8.394531 -4.746094,-11.453125 z m 0.9375,2.824219 -1.835937,-0.097656 C 32.78125,8.945312 32.492188,8.625 32.183594,8.316406 30.835938,6.96875 29.253906,5.9375 27.535156,5.257812 L 26.875,3.542969 c 3.28125,0.996093 6.09375,3.078125 8.015625,5.828125 z m -12,-1.894532 4.269531,-1.523437 c 1.65625,0.640625 3.175782,1.621094 4.46875,2.914063 0.316406,0.316406 0.609375,0.640624 0.886719,0.980468 l -0.125,4.527344 -4.273437,1.390625 -5.226563,-3.796875 z M 18.125,3.542969 17.464844,5.265625 c -2.160156,0.855469 -4.054688,2.246094 -5.511719,4.007813 l -1.84375,0.097656 C 12.03125,6.621094 14.84375,4.539062 18.125,3.542969 Z m 3.984375,3.933593 v 4.492188 l -5.226563,3.796875 -4.273437,-1.390625 -0.125,-4.515625 c 1.40625,-1.726563 3.25,-3.082031 5.363281,-3.902344 z M 10.464844,27.117188 C 8.539062,24.582031 7.394531,21.421875 7.394531,18 c 0,-0.101562 0.00391,-0.203125 0.00391,-0.308594 l 1.433593,1.164063 c 0.148438,2.375 0.902344,4.585937 2.109375,6.484375 z m 1.199218,-2.105469 C 10.472656,23.175781 9.730469,21.023438 9.605469,18.707031 l 2.761719,-3.585937 4.273437,1.386718 1.996094,6.144532 -2.640625,3.632812 z M 22.5,33.105469 c -1.734375,0 -3.40625,-0.296875 -4.957031,-0.839844 l 1.542969,-1 c 1.09375,0.28125 2.238281,0.429687 3.414062,0.429687 1.179688,0 2.324219,-0.148437 3.414062,-0.429687 l 1.542969,1 C 25.90625,32.808594 24.238281,33.105469 22.5,33.105469 Z m 3.3125,-2.625 c -1.058594,0.28125 -2.167969,0.433593 -3.3125,0.433593 -1.144531,0 -2.253906,-0.152343 -3.3125,-0.433593 l -2.558594,-3.734375 2.644532,-3.636719 h 6.457031 l 2.640625,3.636719 z m 7.523438,-5.472657 -4.332032,1.277344 -2.640625,-3.636718 1.996094,-6.140626 4.273437,-1.386718 2.761719,3.585937 c -0.125,2.316407 -0.867187,4.46875 -2.058593,6.300781 z m 0.722656,0.332032 c 1.207031,-1.898438 1.960937,-4.109375 2.109375,-6.484375 l 1.433593,-1.164063 c 0,0.105469 0.0039,0.207032 0.0039,0.308594 0,3.421875 -1.144531,6.582031 -3.070313,9.117188 z m 0,0"
       id="path90" />
    <path
       style="fill:#000000;fill-opacity:1;fill-rule:nonzero;stroke:none"
       d="m 5.707031,41.328125 c -0.0625,0.03125 -0.128906,0.05469 -0.195312,0.07031 -0.066407,0.01953 -0.136719,0.02734 -0.210938,0.02734 -0.21875,0 -0.390625,-0.0625 -0.519531,-0.183593 -0.128906,-0.121094 -0.191406,-0.289063 -0.191406,-0.496094 0,-0.210938 0.0625,-0.375 0.191406,-0.5 C 4.910156,40.125 5.082031,40.0625 5.300781,40.0625 c 0.074219,0 0.144531,0.01172 0.210938,0.02734 0.066406,0.01563 0.132812,0.03906 0.195312,0.07031 v 0.273438 c -0.0625,-0.04297 -0.125,-0.07422 -0.1875,-0.09375 -0.058593,-0.01953 -0.125,-0.03125 -0.191406,-0.03125 -0.121094,0 -0.214844,0.03906 -0.285156,0.117187 -0.070313,0.07813 -0.101563,0.183594 -0.101563,0.320313 0,0.132812 0.03125,0.242187 0.101563,0.320312 0.070312,0.07422 0.164062,0.113282 0.285156,0.113282 0.066406,0 0.132813,-0.0078 0.191406,-0.02734 0.0625,-0.02344 0.125,-0.05469 0.1875,-0.09766 z m 0,0"
       id="path92" />
    <path
       style="fill:#000000;fill-opacity:1;fill-rule:nonzero;stroke:none"
       d="m 6.703125,40.683594 c -0.027344,-0.01172 -0.054687,-0.02344 -0.082031,-0.02734 -0.027344,-0.0078 -0.054688,-0.01172 -0.082032,-0.01172 -0.082031,0 -0.144531,0.02734 -0.1875,0.07813 -0.042968,0.05469 -0.0625,0.125 -0.0625,0.222656 v 0.453126 H 5.972656 V 40.41407 h 0.316406 v 0.164063 C 6.328125,40.511719 6.375,40.464844 6.425781,40.4375 c 0.054688,-0.03125 0.117188,-0.04687 0.1875,-0.04687 0.011719,0 0.023438,0 0.035157,0.0039 0.011718,0 0.03125,0 0.054687,0.0039 z m 0,0"
       id="path94" />
    <path
       style="fill:#000000;fill-opacity:1;fill-rule:nonzero;stroke:none"
       d="m 7.84375,40.90625 v 0.08984 H 7.105469 c 0.00781,0.07422 0.035156,0.128906 0.082031,0.164062 0.046875,0.03906 0.109375,0.05469 0.191406,0.05469 0.066406,0 0.132813,-0.0078 0.203125,-0.02734 0.070313,-0.01953 0.140625,-0.05078 0.214844,-0.08984 V 41.33985 C 7.722656,41.36719 7.648438,41.39063 7.574219,41.40235 7.5,41.41798 7.425781,41.42579 7.351562,41.42579 c -0.179687,0 -0.320312,-0.04687 -0.417968,-0.136719 -0.097656,-0.08984 -0.148438,-0.214843 -0.148438,-0.378906 0,-0.160156 0.050782,-0.289062 0.148438,-0.378906 0.09375,-0.09375 0.226562,-0.140625 0.398437,-0.140625 0.152344,0 0.277344,0.04687 0.371094,0.140625 0.09375,0.09375 0.140625,0.21875 0.140625,0.375 z M 7.519531,40.800781 C 7.519531,40.742191 7.5,40.691406 7.46875,40.65625 7.433594,40.62109 7.386719,40.60156 7.332031,40.60156 c -0.0625,0 -0.113281,0.01563 -0.148437,0.05078 -0.039063,0.03516 -0.0625,0.08203 -0.074219,0.148437 z m 0,0"
       id="path96" />
    <path
       style="fill:#000000;fill-opacity:1;fill-rule:nonzero;stroke:none"
       d="m 8.523438,40.957031 c -0.066407,0 -0.117188,0.01172 -0.148438,0.03125 -0.035156,0.02344 -0.050781,0.05859 -0.050781,0.101563 0,0.03906 0.011719,0.07031 0.039062,0.09375 0.027344,0.02344 0.066407,0.03125 0.113281,0.03125 0.058594,0 0.109376,-0.01953 0.148438,-0.0625 0.039062,-0.04297 0.0625,-0.09375 0.0625,-0.160156 v -0.03516 z m 0.480468,-0.117187 v 0.558594 H 8.6875 v -0.144532 c -0.042969,0.05859 -0.089844,0.105469 -0.144531,0.132813 -0.050781,0.02344 -0.117188,0.03906 -0.191407,0.03906 -0.101562,0 -0.1875,-0.03125 -0.25,-0.08984 -0.0625,-0.05859 -0.09375,-0.136719 -0.09375,-0.230469 0,-0.117188 0.039063,-0.199219 0.117188,-0.253907 0.078125,-0.05469 0.203125,-0.08203 0.375,-0.08203 h 0.1875 v -0.02344 c 0,-0.05078 -0.023438,-0.08594 -0.0625,-0.109375 -0.039062,-0.02344 -0.097656,-0.03516 -0.183594,-0.03516 -0.066406,0 -0.128906,0.0078 -0.1875,0.01953 -0.058594,0.01563 -0.109375,0.03516 -0.160156,0.0625 V 40.4414 C 8.160156,40.42577 8.226562,40.41406 8.296875,40.40624 8.363281,40.39452 8.433594,40.39061 8.5,40.39061 c 0.175781,0 0.304688,0.03516 0.382812,0.105469 0.078126,0.07031 0.121094,0.183594 0.121094,0.34375 z m 0,0"
       id="path98" />
    <path
       style="fill:#000000;fill-opacity:1;fill-rule:nonzero;stroke:none"
       d="m 9.640625,40.136719 v 0.277343 h 0.324219 v 0.226563 H 9.640625 v 0.417969 c 0,0.04687 0.00781,0.07813 0.027344,0.09375 0.015625,0.01563 0.050781,0.02344 0.105469,0.02344 H 9.9375 v 0.222657 H 9.667969 c -0.125,0 -0.214844,-0.02344 -0.265625,-0.07422 -0.054688,-0.05469 -0.078125,-0.140625 -0.078125,-0.265625 v -0.417969 h -0.15625 v -0.226563 h 0.15625 v -0.277343 z m 0,0"
       id="path100" />
    <path
       style="fill:#000000;fill-opacity:1;fill-rule:nonzero;stroke:none"
       d="m 11.140625,40.90625 v 0.08984 h -0.738281 c 0.0078,0.07422 0.03516,0.128906 0.08203,0.164062 0.04297,0.03906 0.109375,0.05469 0.191406,0.05469 0.06641,0 0.132813,-0.0078 0.203125,-0.02734 0.06641,-0.01953 0.140625,-0.05078 0.210938,-0.08984 v 0.242188 c -0.07422,0.02734 -0.148438,0.05078 -0.222656,0.0625 -0.07422,0.01563 -0.148438,0.02344 -0.222657,0.02344 -0.175781,0 -0.316406,-0.04687 -0.414062,-0.136719 -0.09766,-0.08984 -0.148438,-0.214843 -0.148438,-0.378906 0,-0.160156 0.04687,-0.289062 0.144531,-0.378906 0.09766,-0.09375 0.230469,-0.140625 0.402344,-0.140625 0.152344,0 0.277344,0.04687 0.371094,0.140625 0.09375,0.09375 0.140625,0.21875 0.140625,0.375 z m -0.324219,-0.105469 c 0,-0.05859 -0.01953,-0.109375 -0.05469,-0.144531 -0.03516,-0.03516 -0.07813,-0.05469 -0.136719,-0.05469 -0.05859,0 -0.109375,0.01563 -0.148438,0.05078 -0.03516,0.03516 -0.0625,0.08203 -0.07031,0.148437 z m 0,0"
       id="path102" />
    <path
       style="fill:#000000;fill-opacity:1;fill-rule:nonzero;stroke:none"
       d="M 12.046875,40.558594 V 40.03125 h 0.316406 v 1.367188 h -0.316406 v -0.140626 c -0.04297,0.05859 -0.08984,0.101563 -0.144531,0.128907 -0.05078,0.02344 -0.113282,0.03906 -0.179688,0.03906 -0.121094,0 -0.222656,-0.05078 -0.300781,-0.144531 -0.07813,-0.09766 -0.113281,-0.222656 -0.113281,-0.371094 0,-0.152344 0.03516,-0.277344 0.113281,-0.375 0.07813,-0.09375 0.179687,-0.144531 0.300781,-0.144531 0.06641,0 0.128906,0.01563 0.179688,0.04297 0.05469,0.02734 0.101562,0.07031 0.144531,0.125 z m -0.207031,0.636718 c 0.06641,0 0.117187,-0.02344 0.152344,-0.07031 0.03516,-0.05078 0.05469,-0.121094 0.05469,-0.214844 0,-0.09375 -0.01953,-0.167968 -0.05469,-0.214844 -0.03516,-0.05078 -0.08594,-0.07422 -0.152344,-0.07422 -0.06641,0 -0.117188,0.02344 -0.15625,0.07422 -0.03516,0.04688 -0.05078,0.121094 -0.05078,0.214844 0,0.09375 0.01563,0.164063 0.05078,0.214844 0.03906,0.04687 0.08984,0.07031 0.15625,0.07031 z m 0,0"
       id="path104" />
    <path
       style="fill:#000000;fill-opacity:1;fill-rule:nonzero;stroke:none"
       d="m 13.816406,41.195312 c 0.06641,0 0.117188,-0.02344 0.152344,-0.07031 0.03516,-0.05078 0.05469,-0.121094 0.05469,-0.214844 0,-0.09375 -0.01953,-0.167968 -0.05469,-0.214844 -0.03516,-0.05078 -0.08594,-0.07422 -0.152344,-0.07422 -0.07031,0 -0.121094,0.02344 -0.15625,0.07422 -0.03516,0.05078 -0.05469,0.121094 -0.05469,0.214844 0,0.09375 0.01953,0.164063 0.05469,0.210938 0.03516,0.05078 0.08594,0.07422 0.15625,0.07422 z m -0.210937,-0.636718 c 0.04297,-0.05469 0.09375,-0.09766 0.144531,-0.125 0.05469,-0.02734 0.113281,-0.04297 0.183594,-0.04297 0.121094,0 0.21875,0.05078 0.296875,0.144531 0.07813,0.09766 0.117187,0.222656 0.117187,0.375 0,0.148438 -0.03906,0.273438 -0.117187,0.371094 -0.07813,0.09375 -0.175781,0.144531 -0.296875,0.144531 -0.07031,0 -0.128906,-0.01563 -0.183594,-0.03906 -0.05078,-0.02734 -0.101562,-0.07031 -0.144531,-0.128907 v 0.140626 h -0.3125 V 40.03125 h 0.3125 z m 0,0"
       id="path106" />
    <path
       style="fill:#000000;fill-opacity:1;fill-rule:nonzero;stroke:none"
       d="m 14.453125,40.414062 h 0.3125 l 0.265625,0.667969 0.222656,-0.667969 h 0.316406 l -0.414062,1.078126 c -0.04297,0.109374 -0.08984,0.1875 -0.144531,0.230468 -0.05859,0.04297 -0.128907,0.06641 -0.21875,0.06641 h -0.183594 v -0.207031 h 0.09766 c 0.05469,0 0.09375,-0.0078 0.117188,-0.02734 0.02344,-0.01563 0.04297,-0.04688 0.05859,-0.08984 l 0.0078,-0.02734 z m 0,0"
       id="path108" />
    <path
       style="fill:#000000;fill-opacity:1;fill-rule:nonzero;stroke:none"
       d="m 16.730469,40.34375 v 0.800781 h 0.125 c 0.136719,0 0.242187,-0.03516 0.316406,-0.101562 0.07031,-0.07031 0.109375,-0.167969 0.109375,-0.300781 0,-0.128907 -0.03906,-0.230469 -0.109375,-0.296876 -0.07422,-0.06641 -0.179687,-0.101562 -0.316406,-0.101562 z M 16.394531,40.089844 H 16.75 c 0.199219,0 0.347656,0.01172 0.445312,0.03906 0.09766,0.03125 0.183594,0.07813 0.253907,0.144532 0.05859,0.05859 0.105469,0.128906 0.136719,0.207031 0.02734,0.07813 0.04297,0.164062 0.04297,0.261719 0,0.09766 -0.01563,0.1875 -0.04297,0.265624 -0.03125,0.07813 -0.07813,0.144532 -0.136719,0.207032 -0.07031,0.06641 -0.15625,0.113281 -0.253907,0.144531 -0.09766,0.02734 -0.246093,0.03906 -0.445312,0.03906 h -0.355469 z m 0,0"
       id="path110" />
    <path
       style="fill:#000000;fill-opacity:1;fill-rule:nonzero;stroke:none"
       d="m 18.316406,40.957031 c -0.06641,0 -0.117187,0.01172 -0.148437,0.03125 -0.03516,0.02344 -0.05078,0.05859 -0.05078,0.101563 0,0.03906 0.01562,0.07031 0.04297,0.09375 0.02344,0.02344 0.0625,0.03125 0.109375,0.03125 0.05859,0 0.109375,-0.01953 0.148438,-0.0625 0.04297,-0.04297 0.0625,-0.09375 0.0625,-0.160156 v -0.03516 z m 0.480469,-0.117187 v 0.558594 h -0.316406 v -0.144532 c -0.04297,0.05859 -0.08984,0.105469 -0.144531,0.132813 -0.05078,0.02344 -0.117188,0.03906 -0.191407,0.03906 -0.101562,0 -0.183593,-0.03125 -0.25,-0.08984 -0.0625,-0.05859 -0.09375,-0.136719 -0.09375,-0.230469 0,-0.117188 0.03906,-0.199219 0.117188,-0.253907 0.08203,-0.05469 0.207031,-0.08203 0.375,-0.08203 h 0.1875 v -0.02344 c 0,-0.05078 -0.01953,-0.08594 -0.05859,-0.109375 -0.04297,-0.02344 -0.101563,-0.03516 -0.183594,-0.03516 -0.07031,0 -0.132812,0.0078 -0.191406,0.01953 -0.05859,0.01563 -0.109375,0.03516 -0.160156,0.0625 V 40.4414 c 0.06641,-0.01563 0.132812,-0.02734 0.203125,-0.03516 0.06641,-0.01172 0.136718,-0.01563 0.203125,-0.01563 0.179687,0 0.304687,0.03516 0.382812,0.105469 0.08203,0.07031 0.121094,0.183594 0.121094,0.34375 z m 0,0"
       id="path112" />
    <path
       style="fill:#000000;fill-opacity:1;fill-rule:nonzero;stroke:none"
       d="m 18.964844,40.414062 h 0.316406 l 0.246094,0.679688 0.242187,-0.679688 h 0.316407 l -0.386719,0.984376 h -0.347657 z m 0,0"
       id="path114" />
    <path
       style="fill:#000000;fill-opacity:1;fill-rule:nonzero;stroke:none"
       d="m 20.261719,40.414062 h 0.316406 v 0.984376 h -0.316406 z m 0,-0.382812 h 0.316406 v 0.257812 h -0.316406 z m 0,0"
       id="path116" />
    <path
       style="fill:#000000;fill-opacity:1;fill-rule:nonzero;stroke:none"
       d="M 21.546875,40.558594 V 40.03125 h 0.316406 v 1.367188 h -0.316406 v -0.140626 c -0.04297,0.05859 -0.08984,0.101563 -0.140625,0.128907 -0.05078,0.02344 -0.113281,0.03906 -0.183594,0.03906 -0.121094,0 -0.21875,-0.05078 -0.296875,-0.144531 -0.07813,-0.09766 -0.117187,-0.222656 -0.117187,-0.371094 0,-0.152344 0.03906,-0.277344 0.117187,-0.375 0.07813,-0.09375 0.175781,-0.144531 0.296875,-0.144531 0.07031,0 0.128906,0.01563 0.183594,0.04297 0.05078,0.02734 0.09766,0.07031 0.140625,0.125 z m -0.203125,0.636718 c 0.06641,0 0.117188,-0.02344 0.152344,-0.07031 0.03516,-0.05078 0.05078,-0.121094 0.05078,-0.214844 0,-0.09375 -0.01563,-0.167968 -0.05078,-0.214844 -0.03516,-0.05078 -0.08594,-0.07422 -0.152344,-0.07422 -0.07031,0 -0.121094,0.02344 -0.15625,0.07422 -0.03516,0.04688 -0.05078,0.121094 -0.05078,0.214844 0,0.09375 0.01563,0.164063 0.05078,0.214844 0.03516,0.04687 0.08594,0.07031 0.15625,0.07031 z m 0,0"
       id="path118" />
    <path
       style="fill:#000000;fill-opacity:1;fill-rule:nonzero;stroke:none"
       d="m 22.808594,40.089844 h 0.335937 v 0.476562 l 0.488281,-0.476562 h 0.394532 l -0.632813,0.617187 0.699219,0.691407 h -0.425781 l -0.523438,-0.515626 v 0.515626 h -0.335937 z m 0,0"
       id="path120" />
    <path
       style="fill:#000000;fill-opacity:1;fill-rule:nonzero;stroke:none"
       d="m 25.179688,40.800781 v 0.597657 h -0.316407 v -0.457032 c 0,-0.08594 -0.0039,-0.144531 -0.0078,-0.175781 -0.0039,-0.03125 -0.0078,-0.05469 -0.01953,-0.07031 -0.01172,-0.02344 -0.02734,-0.03906 -0.05078,-0.04687 -0.01953,-0.01172 -0.04297,-0.01953 -0.07031,-0.01953 -0.06641,0 -0.117188,0.02734 -0.15625,0.07813 -0.03516,0.05078 -0.05469,0.121094 -0.05469,0.207031 v 0.484376 h -0.3125 V 40.03125 h 0.3125 v 0.527344 c 0.04687,-0.05469 0.09766,-0.09766 0.152344,-0.125 0.05078,-0.02734 0.109375,-0.04297 0.175781,-0.04297 0.113281,0 0.199219,0.03516 0.257813,0.105469 0.05859,0.07031 0.08984,0.171875 0.08984,0.304687 z m 0,0"
       id="path122" />
    <path
       style="fill:#000000;fill-opacity:1;fill-rule:nonzero;stroke:none"
       d="m 25.914062,40.957031 c -0.06641,0 -0.117187,0.01172 -0.152343,0.03125 -0.03125,0.02344 -0.04687,0.05859 -0.04687,0.101563 0,0.03906 0.01172,0.07031 0.03906,0.09375 0.02734,0.02344 0.0625,0.03125 0.109375,0.03125 0.0625,0 0.109375,-0.01953 0.152344,-0.0625 0.03906,-0.04297 0.05859,-0.09375 0.05859,-0.160156 v -0.03516 z m 0.476563,-0.117187 v 0.558594 h -0.316406 v -0.144532 c -0.03906,0.05859 -0.08984,0.105469 -0.140625,0.132813 -0.05469,0.02344 -0.117188,0.03906 -0.191406,0.03906 -0.105469,0 -0.1875,-0.03125 -0.25,-0.08984 -0.0625,-0.05859 -0.09375,-0.136719 -0.09375,-0.230469 0,-0.117188 0.03906,-0.199219 0.117187,-0.253907 0.07813,-0.05469 0.203125,-0.08203 0.375,-0.08203 h 0.183594 v -0.02344 c 0,-0.05078 -0.01953,-0.08594 -0.05859,-0.109375 -0.03906,-0.02344 -0.101563,-0.03516 -0.183594,-0.03516 -0.06641,0 -0.128906,0.0078 -0.1875,0.01953 -0.05859,0.01563 -0.113281,0.03516 -0.160156,0.0625 V 40.4414 c 0.06641,-0.01563 0.132813,-0.02734 0.199219,-0.03516 0.07031,-0.01172 0.136718,-0.01563 0.207031,-0.01563 0.175781,0 0.304687,0.03516 0.382813,0.105469 0.07812,0.07031 0.117187,0.183594 0.117187,0.34375 z m 0,0"
       id="path124" />
    <path
       style="fill:#000000;fill-opacity:1;fill-rule:nonzero;stroke:none"
       d="M 26.6875,40.414062 H 27 v 0.984376 h -0.3125 z m 0,-0.382812 H 27 v 0.257812 h -0.3125 z m 0,0"
       id="path126" />
    <path
       style="fill:#000000;fill-opacity:1;fill-rule:nonzero;stroke:none"
       d="m 5.296875,41.832031 v 0.207031 H 5.125 c -0.042969,0 -0.074219,0.0078 -0.09375,0.02344 -0.015625,0.01563 -0.027344,0.04297 -0.027344,0.08594 v 0.06641 h 0.269532 v 0.226562 H 5.003906 v 0.757813 h -0.3125 v -0.757813 h -0.15625 v -0.226562 h 0.15625 v -0.06641 c 0,-0.109376 0.027344,-0.1875 0.089844,-0.238282 0.058594,-0.05078 0.152344,-0.07813 0.277344,-0.07813 z m 0,0"
       id="path128" />
    <path
       style="fill:#000000;fill-opacity:1;fill-rule:nonzero;stroke:none"
       d="M 6.167969,42.484375 C 6.136719,42.472656 6.109375,42.460938 6.082031,42.457031 6.054688,42.449219 6.027344,42.445312 6,42.445312 c -0.078125,0 -0.140625,0.02734 -0.183594,0.07813 C 5.769531,42.574219 5.75,42.648438 5.75,42.746094 v 0.453125 H 5.433594 V 42.214844 H 5.75 v 0.164062 c 0.039062,-0.06641 0.085938,-0.113281 0.136719,-0.140625 0.054687,-0.03125 0.117187,-0.04687 0.191406,-0.04687 0.00781,0 0.019531,0 0.03125,0.0039 0.015625,0 0.03125,0 0.054687,0.0039 z m 0,0"
       id="path130" />
    <path
       style="fill:#000000;fill-opacity:1;fill-rule:nonzero;stroke:none"
       d="m 6.789062,42.417969 c -0.066406,0 -0.121093,0.02344 -0.15625,0.07422 -0.039062,0.05078 -0.058593,0.121093 -0.058593,0.214843 0,0.09766 0.019531,0.167969 0.058593,0.21875 C 6.667969,42.976562 6.722656,43 6.789062,43 6.859375,43 6.910156,42.97656 6.949219,42.92578 6.984375,42.875 7.003906,42.804687 7.003906,42.70703 c 0,-0.09375 -0.019531,-0.164062 -0.054687,-0.214843 -0.039063,-0.05078 -0.089844,-0.07422 -0.160157,-0.07422 z m 0,-0.226563 c 0.171876,0 0.304688,0.04687 0.398438,0.136719 0.09375,0.09375 0.144531,0.21875 0.144531,0.378906 0,0.164063 -0.050781,0.289063 -0.144531,0.382813 -0.09375,0.08984 -0.226562,0.136718 -0.398438,0.136718 -0.167968,0 -0.300781,-0.04687 -0.398437,-0.136718 C 6.296875,42.996094 6.25,42.871094 6.25,42.707031 c 0,-0.160156 0.046875,-0.285156 0.140625,-0.378906 0.097656,-0.08984 0.230469,-0.136719 0.398437,-0.136719 z m 0,0"
       id="path132" />
    <path
       style="fill:#000000;fill-opacity:1;fill-rule:nonzero;stroke:none"
       d="m 8.472656,42.378906 c 0.039063,-0.05859 0.085938,-0.105468 0.140625,-0.140625 0.054688,-0.03125 0.113281,-0.04687 0.179688,-0.04687 0.113281,0 0.199219,0.03516 0.257812,0.105469 0.058594,0.07031 0.089844,0.171875 0.089844,0.304687 v 0.597657 H 8.824219 v -0.535157 c 0,-0.0078 0,-0.01953 0,-0.03516 0,-0.07031 -0.00781,-0.121094 -0.03125,-0.152344 -0.019531,-0.03125 -0.050781,-0.04687 -0.097657,-0.04687 -0.058593,0 -0.105468,0.02344 -0.136718,0.07422 C 8.523438,42.554688 8.507812,42.625 8.507812,42.71875 v 0.480469 H 8.191406 V 42.6875 c 0,-0.109375 -0.011718,-0.179688 -0.027344,-0.210938 -0.019531,-0.03125 -0.054687,-0.04687 -0.101562,-0.04687 -0.058594,0 -0.105469,0.02344 -0.140625,0.07422 C 7.890625,42.554688 7.875,42.625 7.875,42.714844 v 0.484375 H 7.558594 V 42.214844 H 7.875 v 0.144531 c 0.039062,-0.05469 0.082031,-0.09766 0.132812,-0.125 0.046876,-0.02734 0.105469,-0.04297 0.164063,-0.04297 0.066406,0 0.128906,0.01563 0.179687,0.05078 0.054688,0.03125 0.09375,0.07812 0.121094,0.136718 z m 0,0"
       id="path134" />
    <path
       style="fill:#000000;fill-opacity:1;fill-rule:nonzero;stroke:none"
       d="m 10.40625,41.9375 v 0.277344 h 0.324219 v 0.226562 H 10.40625 v 0.417969 c 0,0.04297 0.0078,0.07422 0.02734,0.08984 0.01563,0.01953 0.05078,0.02734 0.105468,0.02734 h 0.164063 v 0.222657 H 10.43359 c -0.125,0 -0.214844,-0.02344 -0.265625,-0.07813 -0.05469,-0.05078 -0.07813,-0.136719 -0.07813,-0.261719 v -0.417969 h -0.15625 v -0.226562 h 0.15625 V 41.9375 Z m 0,0"
       id="path136" />
    <path
       style="fill:#000000;fill-opacity:1;fill-rule:nonzero;stroke:none"
       d="m 11.910156,42.601562 v 0.597657 H 11.59375 v -0.457031 c 0,-0.08594 0,-0.144532 -0.0039,-0.175782 -0.0039,-0.03516 -0.01172,-0.05859 -0.01953,-0.07422 -0.01562,-0.01953 -0.03125,-0.03516 -0.05078,-0.04688 -0.02344,-0.01172 -0.04687,-0.01562 -0.07422,-0.01562 -0.0625,0 -0.117187,0.02734 -0.152343,0.07812 -0.03906,0.04688 -0.05859,0.117188 -0.05859,0.207032 v 0.484375 h -0.3125 v -1.367188 h 0.3125 v 0.527344 c 0.05078,-0.05859 0.09766,-0.09766 0.152344,-0.125 0.05469,-0.02734 0.113281,-0.04297 0.175781,-0.04297 0.113281,0 0.203125,0.03516 0.261719,0.105469 0.05859,0.07031 0.08594,0.171875 0.08594,0.304687 z m 0,0"
       id="path138" />
    <path
       style="fill:#000000;fill-opacity:1;fill-rule:nonzero;stroke:none"
       d="m 13.1875,42.703125 v 0.09375 h -0.738281 c 0.0078,0.07031 0.03516,0.128906 0.08203,0.164063 0.04297,0.03516 0.109375,0.05469 0.191406,0.05469 0.06641,0 0.132813,-0.0078 0.203125,-0.02734 0.06641,-0.01953 0.140625,-0.05078 0.210938,-0.08984 v 0.242187 c -0.07422,0.02734 -0.148438,0.04687 -0.222657,0.0625 -0.07422,0.01563 -0.148437,0.02344 -0.222656,0.02344 -0.175781,0 -0.316406,-0.04687 -0.414062,-0.136718 -0.09766,-0.08984 -0.148438,-0.21875 -0.148438,-0.382813 0,-0.160156 0.04687,-0.285156 0.144532,-0.375 0.09766,-0.09375 0.230468,-0.140625 0.402343,-0.140625 0.152344,0 0.277344,0.04687 0.371094,0.140625 0.09375,0.09375 0.140625,0.21875 0.140625,0.371094 z m -0.324219,-0.101563 c 0,-0.0625 -0.01953,-0.109374 -0.05469,-0.144531 -0.03516,-0.03516 -0.07813,-0.05469 -0.136719,-0.05469 -0.05859,0 -0.109375,0.01563 -0.148437,0.05078 -0.03516,0.03516 -0.0625,0.08203 -0.07031,0.148437 z m 0,0"
       id="path140" />
    <path
       style="fill:#000000;fill-opacity:1;fill-rule:nonzero;stroke:none"
       d="m 14.066406,41.886719 h 0.375 l 0.476563,0.902343 v -0.902343 h 0.320312 v 1.3125 h -0.375 l -0.476562,-0.898438 v 0.898438 h -0.320313 z m 0,0"
       id="path142" />
    <path
       style="fill:#000000;fill-opacity:1;fill-rule:nonzero;stroke:none"
       d="m 16.023438,42.417969 c -0.06641,0 -0.121094,0.02344 -0.15625,0.07422 -0.03906,0.05078 -0.05859,0.121093 -0.05859,0.214843 0,0.09766 0.01953,0.167969 0.05859,0.21875 0.03516,0.05078 0.08984,0.07422 0.15625,0.07422 0.07031,0 0.121093,-0.02344 0.160156,-0.07422 0.03516,-0.05078 0.05469,-0.121093 0.05469,-0.21875 0,-0.09375 -0.01953,-0.164062 -0.05469,-0.214843 -0.03906,-0.05078 -0.08984,-0.07422 -0.160156,-0.07422 z m 0,-0.226563 c 0.171874,0 0.304687,0.04687 0.398437,0.136719 0.09375,0.09375 0.144531,0.21875 0.144531,0.378906 0,0.164063 -0.05078,0.289063 -0.144531,0.382813 -0.09375,0.08984 -0.226563,0.136718 -0.398437,0.136718 -0.167969,0 -0.300782,-0.04687 -0.398438,-0.136718 -0.09375,-0.09375 -0.140625,-0.21875 -0.140625,-0.382813 0,-0.160156 0.04687,-0.285156 0.140625,-0.378906 0.09766,-0.08984 0.230469,-0.136719 0.398438,-0.136719 z m 0,0"
       id="path144" />
    <path
       style="fill:#000000;fill-opacity:1;fill-rule:nonzero;stroke:none"
       d="m 16.78125,42.816406 v -0.601562 h 0.316406 v 0.09766 c 0,0.05469 0,0.121094 0,0.203125 0,0.07813 0,0.132813 0,0.160156 0,0.07813 0,0.136719 0.0039,0.171875 0.0078,0.03516 0.01172,0.05859 0.02344,0.07422 0.01172,0.02344 0.03125,0.03906 0.05078,0.05078 0.01953,0.0078 0.04297,0.01563 0.07031,0.01563 0.06641,0 0.117187,-0.02734 0.15625,-0.07813 0.03516,-0.04687 0.05469,-0.117187 0.05469,-0.207031 v -0.488281 h 0.316407 v 0.984375 h -0.316407 v -0.140625 c -0.04687,0.05469 -0.09766,0.09766 -0.148437,0.125 -0.05469,0.02734 -0.113282,0.04297 -0.175782,0.04297 -0.113281,0 -0.199218,-0.03516 -0.261718,-0.105468 -0.05859,-0.07031 -0.08984,-0.171875 -0.08984,-0.304688 z m 0,0"
       id="path146" />
    <path
       style="fill:#000000;fill-opacity:1;fill-rule:nonzero;stroke:none"
       d="m 19.066406,42.601562 v 0.597657 H 18.75 v -0.457031 c 0,-0.08594 -0.0039,-0.144532 -0.0078,-0.175782 -0.0039,-0.03516 -0.01172,-0.05859 -0.01953,-0.07422 -0.01172,-0.01953 -0.03125,-0.03516 -0.05078,-0.04688 -0.01953,-0.01172 -0.04297,-0.01562 -0.07031,-0.01562 -0.06641,0 -0.117187,0.02734 -0.15625,0.07812 -0.03516,0.04688 -0.05469,0.117188 -0.05469,0.207032 v 0.484375 h -0.316406 v -0.984375 h 0.316406 v 0.144531 c 0.04687,-0.05859 0.09766,-0.09766 0.148437,-0.125 0.05469,-0.02734 0.113282,-0.04297 0.179688,-0.04297 0.113281,0 0.199219,0.03516 0.257812,0.105469 0.05859,0.07031 0.08984,0.171875 0.08984,0.304687 z m 0,0"
       id="path148" />
    <path
       style="fill:#000000;fill-opacity:1;fill-rule:nonzero;stroke:none"
       d="m 19.996094,41.886719 h 0.5625 c 0.167968,0 0.292968,0.03906 0.382812,0.113281 0.08984,0.07422 0.136719,0.179688 0.136719,0.316406 0,0.136719 -0.04687,0.242188 -0.136719,0.316406 -0.08984,0.07422 -0.214844,0.113282 -0.382812,0.113282 h -0.222656 v 0.453125 h -0.339844 z m 0.339844,0.246093 V 42.5 h 0.1875 c 0.06641,0 0.117187,-0.01563 0.152343,-0.04687 0.03516,-0.03516 0.05469,-0.07813 0.05469,-0.136719 0,-0.05859 -0.01953,-0.105468 -0.05469,-0.136718 -0.03516,-0.03125 -0.08594,-0.04688 -0.152343,-0.04688 z m 0,0"
       id="path150" />
    <path
       style="fill:#000000;fill-opacity:1;fill-rule:nonzero;stroke:none"
       d="m 22.035156,42.484375 c -0.03125,-0.01172 -0.05859,-0.02344 -0.08594,-0.02734 -0.02734,-0.0078 -0.05078,-0.01172 -0.07813,-0.01172 -0.08203,0 -0.144532,0.02734 -0.1875,0.07813 -0.04687,0.05078 -0.06641,0.125 -0.06641,0.222656 v 0.453125 h -0.316407 v -0.984375 h 0.316407 v 0.164062 c 0.03906,-0.06641 0.08594,-0.113281 0.136718,-0.140625 0.05469,-0.03125 0.117188,-0.04687 0.191406,-0.04687 0.0078,0 0.01953,0 0.03516,0.0039 0.01172,0 0.02734,0 0.05078,0.0039 z m 0,0"
       id="path152" />
    <path
       style="fill:#000000;fill-opacity:1;fill-rule:nonzero;stroke:none"
       d="m 22.65625,42.417969 c -0.06641,0 -0.121094,0.02344 -0.15625,0.07422 -0.03906,0.05078 -0.05859,0.121093 -0.05859,0.214843 0,0.09766 0.01953,0.167969 0.05859,0.21875 0.03516,0.05078 0.08984,0.07422 0.15625,0.07422 0.07031,0 0.121094,-0.02344 0.160156,-0.07422 0.03516,-0.05078 0.05469,-0.121093 0.05469,-0.21875 0,-0.09375 -0.01953,-0.164062 -0.05469,-0.214843 -0.03906,-0.05078 -0.08984,-0.07422 -0.160156,-0.07422 z m 0,-0.226563 c 0.171875,0 0.304688,0.04687 0.398438,0.136719 0.09375,0.09375 0.144531,0.21875 0.144531,0.378906 0,0.164063 -0.05078,0.289063 -0.144531,0.382813 -0.09375,0.08984 -0.226563,0.136718 -0.398438,0.136718 -0.167969,0 -0.300781,-0.04687 -0.398438,-0.136718 -0.09375,-0.09375 -0.140624,-0.21875 -0.140624,-0.382813 0,-0.160156 0.04687,-0.285156 0.140624,-0.378906 0.09766,-0.08984 0.230469,-0.136719 0.398438,-0.136719 z m 0,0"
       id="path154" />
    <path
       style="fill:#000000;fill-opacity:1;fill-rule:nonzero;stroke:none"
       d="m 23.425781,42.214844 h 0.316407 v 0.96875 c 0,0.128906 -0.03125,0.230468 -0.09766,0.300781 -0.0625,0.07031 -0.152343,0.105469 -0.273437,0.105469 h -0.15625 v -0.207032 h 0.05469 c 0.05859,0 0.101563,-0.01562 0.125,-0.04297 0.01953,-0.02344 0.03125,-0.07813 0.03125,-0.15625 z m 0,-0.382813 h 0.316407 v 0.257813 h -0.316407 z m 0,0"
       id="path156" />
    <path
       style="fill:#000000;fill-opacity:1;fill-rule:nonzero;stroke:none"
       d="m 25.027344,42.703125 v 0.09375 h -0.738282 c 0.0078,0.07031 0.03516,0.128906 0.08203,0.164063 0.04297,0.03516 0.109375,0.05469 0.191406,0.05469 0.06641,0 0.132812,-0.0078 0.203125,-0.02734 0.07031,-0.01953 0.140625,-0.05078 0.214844,-0.08984 v 0.242187 c -0.07422,0.02734 -0.148438,0.04687 -0.222657,0.0625 -0.07422,0.01563 -0.152343,0.02344 -0.226562,0.02344 -0.175781,0 -0.316406,-0.04687 -0.414062,-0.136718 C 24.019531,43 23.96875,42.871094 23.96875,42.707031 c 0,-0.160156 0.05078,-0.285156 0.144531,-0.375 0.09766,-0.09375 0.230469,-0.140625 0.402344,-0.140625 0.152344,0 0.277344,0.04687 0.371094,0.140625 0.09375,0.09375 0.140625,0.21875 0.140625,0.371094 z m -0.324219,-0.101563 c 0,-0.0625 -0.01953,-0.109374 -0.05078,-0.144531 -0.03516,-0.03516 -0.08203,-0.05469 -0.136719,-0.05469 -0.0625,0 -0.113281,0.01563 -0.148437,0.05078 -0.03906,0.03516 -0.0625,0.08203 -0.07422,0.148437 z m 0,0"
       id="path158" />
    <path
       style="fill:#000000;fill-opacity:1;fill-rule:nonzero;stroke:none"
       d="m 26.058594,42.246094 v 0.257812 c -0.04297,-0.03125 -0.08594,-0.05078 -0.128906,-0.06641 -0.04297,-0.01563 -0.08594,-0.01953 -0.132813,-0.01953 -0.08594,0 -0.15625,0.02344 -0.207031,0.07422 -0.04687,0.05078 -0.07031,0.125 -0.07031,0.214843 0,0.09375 0.02344,0.164063 0.07031,0.214844 0.05078,0.05469 0.121094,0.07813 0.207031,0.07813 0.05078,0 0.09766,-0.0078 0.140625,-0.01953 0.04297,-0.01563 0.08594,-0.03906 0.121094,-0.06641 v 0.257813 c -0.04687,0.01563 -0.09766,0.03125 -0.148438,0.03906 -0.05078,0.0078 -0.101562,0.01562 -0.152344,0.01562 -0.179687,0 -0.316406,-0.04687 -0.417968,-0.136718 -0.101563,-0.09375 -0.148438,-0.21875 -0.148438,-0.382813 0,-0.160156 0.04687,-0.289062 0.148438,-0.378906 0.101562,-0.08984 0.238281,-0.136719 0.417968,-0.136719 0.05078,0 0.101563,0.0039 0.152344,0.01563 0.05078,0.0078 0.09766,0.01953 0.148438,0.03906 z m 0,0"
       id="path160" />
    <path
       style="fill:#000000;fill-opacity:1;fill-rule:nonzero;stroke:none"
       d="m 26.675781,41.9375 v 0.277344 H 27 v 0.226562 h -0.324219 v 0.417969 c 0,0.04297 0.0078,0.07422 0.02734,0.08984 0.01563,0.01953 0.05469,0.02734 0.105469,0.02734 h 0.164062 v 0.222657 h -0.269531 c -0.125,0 -0.214844,-0.02344 -0.265625,-0.07813 -0.05078,-0.05078 -0.07813,-0.136719 -0.07813,-0.261719 v -0.417969 h -0.15625 v -0.226562 h 0.15625 V 41.9375 Z m 0,0"
       id="path162" />
  </g>
</svg>

